<?xml version="1.0" standalone="no"?>
<!DOCTYPE svg PUBLIC "-//W3C//DTD SVG 20010904//EN"
 "http://www.w3.org/TR/2001/REC-SVG-20010904/DTD/svg10.dtd">
<svg version="1.0" xmlns="http://www.w3.org/2000/svg"
 width="3580.000000pt" height="1124.000000pt" viewBox="0 0 3580.000000 1124.000000"
 preserveAspectRatio="xMidYMid meet">

<g transform="translate(0.000000,1124.000000) scale(0.100000,-0.100000)"
fill="#000000" stroke="none">
<path d="M0 5620 l0 -5620 17815 0 17815 0 0 5620 0 5620 -17815 0 -17815 0 0
-5620z m26173 4349 c31 -17 37 -28 37 -77 0 -36 -6 -50 -33 -77 -41 -41 -117
-65 -204 -65 -105 0 -141 32 -127 112 11 57 54 88 159 111 42 10 147 7 168 -4z
m-9274 -33 c11 -13 27 -116 130 -836 57 -398 63 -425 97 -460 28 -30 41 -102
25 -142 l-11 -28 -224 0 c-255 0 -242 -5 -230 87 5 40 12 56 30 68 25 16 30
45 18 118 l-7 37 -91 0 -92 0 -10 -61 -10 -61 32 -25 c25 -19 35 -35 40 -69 3
-24 3 -55 0 -69 l-7 -26 -147 3 -147 3 1 60 c1 50 6 68 31 105 30 44 33 61
113 584 l82 538 -26 27 c-22 23 -26 36 -26 87 0 34 3 64 7 67 3 4 97 7 208 7
161 0 205 -3 214 -14z m708 -646 c3 -648 3 -655 23 -672 18 -14 21 -26 18 -80
l-3 -63 -210 0 -210 0 -3 62 c-2 50 1 66 16 81 29 29 31 77 34 644 l2 517 -27
25 c-23 21 -27 33 -27 79 0 29 3 57 7 61 4 3 90 5 192 4 l186 -3 2 -655z m500
0 c3 -648 3 -655 23 -672 18 -14 21 -26 18 -80 l-3 -63 -210 0 -210 0 -3 62
c-2 50 1 66 16 81 29 29 31 77 34 644 l2 517 -27 25 c-23 21 -27 33 -27 79 0
29 3 57 7 61 4 3 90 5 192 4 l186 -3 2 -655z m7111 -2 l2 -658 31 -15 c29 -16
30 -18 27 -78 l-3 -62 -191 -3 c-182 -2 -192 -2 -197 17 -5 19 -6 19 -53 -5
-35 -18 -63 -24 -108 -24 -148 1 -231 96 -274 315 -11 58 -15 141 -15 300 1
405 50 583 178 645 60 29 159 26 223 -8 49 -25 55 -20 50 44 -2 31 -9 42 -30
52 -26 12 -28 17 -28 78 l0 64 193 -2 192 -3 3 -657z m2590 522 c1 -74 4 -141
7 -149 4 -10 14 -7 40 13 120 92 276 86 340 -13 40 -61 45 -128 45 -596 0
-432 0 -441 20 -458 18 -15 20 -27 18 -75 l-3 -57 -156 -3 c-232 -4 -218 -39
-219 559 0 396 -2 448 -16 460 -13 11 -20 11 -42 -2 l-27 -15 -3 -413 -2 -414
25 -33 c20 -26 25 -44 25 -89 l0 -55 -212 2 -213 3 -3 55 c-3 49 0 59 23 80
l25 23 0 568 c0 312 -3 575 -6 584 -4 9 -17 21 -30 26 -21 8 -24 15 -24 67 0
32 3 62 7 66 4 3 90 5 192 4 l186 -3 3 -135z m-7755 -103 c63 -32 144 -113
176 -180 11 -23 31 -79 43 -122 19 -71 22 -104 22 -295 0 -189 -3 -224 -22
-292 -43 -156 -119 -265 -224 -323 -49 -28 -61 -30 -153 -30 -89 0 -106 3
-157 28 -71 35 -130 100 -174 192 -82 170 -95 473 -32 729 38 155 126 267 240
308 80 28 206 21 281 -15z m2444 14 c26 -12 52 -35 70 -62 l28 -43 3 -485 c3
-454 4 -487 21 -506 22 -24 35 -86 26 -126 l-7 -29 -160 2 -161 3 -21 28 c-21
28 -21 38 -24 500 -2 414 -4 473 -19 489 -14 16 -18 16 -44 2 l-29 -15 0 -420
0 -421 25 -20 c21 -16 25 -28 25 -72 0 -28 -5 -57 -12 -64 -9 -9 -70 -12 -214
-12 -226 0 -214 -4 -214 76 0 35 5 49 25 66 l25 22 0 466 c0 457 0 467 -20
485 -17 16 -20 29 -18 79 l3 61 185 0 185 0 3 -37 3 -38 37 30 c75 60 197 78
279 41z m734 9 c20 -6 55 -23 77 -38 111 -74 165 -217 179 -469 l6 -123 -196
0 -197 0 0 -207 c0 -222 4 -240 51 -276 24 -17 30 -18 55 -6 15 8 41 33 57 56
25 34 31 56 37 127 5 47 11 90 15 96 8 13 135 13 155 0 11 -7 15 -28 14 -88
-1 -132 -68 -248 -176 -308 -49 -27 -60 -29 -158 -29 -89 0 -112 3 -151 23
-147 72 -233 222 -260 452 -19 170 2 391 51 534 40 119 135 221 233 252 51 15
159 18 208 4z m850 0 c20 -6 55 -23 77 -38 111 -74 165 -217 179 -469 l6 -123
-196 0 -197 0 0 -207 c0 -222 4 -240 51 -276 24 -17 30 -18 55 -6 15 8 41 33
57 56 25 34 31 56 37 127 5 47 11 90 15 96 8 13 135 13 155 0 11 -7 15 -28 14
-88 -1 -132 -68 -248 -176 -308 -49 -27 -60 -29 -158 -29 -89 0 -112 3 -151
23 -147 72 -233 222 -260 452 -19 170 2 391 51 534 40 119 135 221 233 252 51
15 159 18 208 4z m2555 -6 c42 -14 47 -14 58 1 9 12 25 15 66 13 l53 -3 24
-125 c13 -69 25 -147 26 -175 l2 -50 -44 -3 c-73 -5 -86 2 -126 75 -43 79 -82
133 -96 133 -37 0 -14 -54 127 -307 41 -72 80 -146 86 -165 6 -18 15 -38 19
-44 17 -22 50 -171 55 -254 11 -149 -24 -263 -99 -323 -51 -42 -132 -49 -202
-18 -38 17 -50 19 -57 9 -4 -7 -8 -16 -8 -20 0 -10 -101 -10 -117 0 -11 7 -63
276 -63 326 0 29 16 36 80 36 52 0 83 -20 96 -64 15 -47 74 -126 94 -126 45 0
22 72 -88 270 -167 300 -197 387 -189 550 3 58 10 122 16 142 34 112 159 165
287 122z m2225 6 c20 -6 55 -23 77 -38 111 -74 165 -217 179 -469 l6 -123
-196 0 -197 0 0 -207 c0 -222 4 -240 51 -276 24 -17 30 -18 55 -6 15 8 41 33
57 56 25 34 31 56 37 127 5 47 11 90 15 96 8 13 135 13 155 0 11 -7 15 -28 14
-88 -1 -132 -68 -248 -176 -308 -49 -27 -60 -29 -158 -29 -89 0 -112 3 -151
23 -147 72 -233 222 -260 452 -19 170 2 391 51 534 40 119 135 221 233 252 51
15 159 18 208 4z m908 -17 c49 -49 63 -229 25 -305 -18 -35 -43 -48 -93 -48
-35 0 -44 5 -72 40 -23 29 -35 37 -41 28 -4 -7 -8 -189 -8 -403 l0 -391 30
-17 c28 -17 30 -22 30 -83 l0 -64 -200 0 c-193 0 -200 1 -211 21 -16 30 -2
110 22 127 18 13 19 32 19 482 l0 469 -26 24 c-22 21 -25 30 -22 78 l3 54 158
3 157 3 0 -45 c0 -57 15 -67 33 -23 22 52 61 77 119 77 41 0 54 -5 77 -27z
m612 17 c20 -6 55 -23 77 -38 111 -74 165 -217 179 -469 l6 -123 -196 0 -197
0 0 -207 c0 -222 4 -240 51 -276 24 -17 30 -18 55 -6 15 8 41 33 57 56 25 34
31 56 37 127 5 47 11 90 15 96 8 13 135 13 155 0 11 -7 15 -28 14 -88 -1 -132
-68 -248 -176 -308 -49 -27 -60 -29 -158 -29 -89 0 -112 3 -151 23 -147 72
-233 222 -260 452 -19 170 2 391 51 534 40 119 135 221 233 252 51 15 159 18
208 4z m-11283 -54 c3 -42 0 -53 -22 -73 -14 -13 -26 -33 -26 -45 0 -34 72
-382 81 -392 12 -13 15 -1 52 206 l34 187 -29 32 c-25 27 -29 38 -26 83 l3 51
114 3 c63 1 118 -1 123 -6 5 -5 11 -31 15 -59 5 -44 3 -52 -14 -62 -11 -5 -25
-23 -31 -38 -7 -15 -52 -251 -102 -523 -49 -272 -97 -522 -105 -555 -42 -158
-140 -235 -302 -235 -120 0 -173 43 -173 141 0 31 3 65 6 74 15 38 118 60 165
35 10 -6 28 -29 39 -50 20 -40 33 -49 45 -30 7 12 -200 1070 -221 1127 -8 23
-22 44 -29 47 -11 4 -15 22 -15 64 0 32 3 62 7 66 4 3 97 5 207 4 l201 -3 3
-49z m1674 -446 l3 -499 22 -23 c22 -21 23 -21 43 -3 19 18 20 28 20 436 l0
418 -26 24 c-22 21 -25 30 -22 83 l3 59 190 0 190 0 3 -551 2 -552 25 -16 c22
-15 25 -24 25 -76 l0 -60 -187 2 -188 3 -3 25 c-6 50 -10 53 -45 26 -85 -65
-192 -84 -272 -47 -48 22 -68 43 -92 96 -16 36 -18 84 -21 515 l-3 476 -22 9
c-18 8 -22 19 -25 69 -2 32 -1 65 2 72 4 11 43 14 190 14 l185 0 3 -500z
m5436 -55 l2 -550 23 -10 c19 -9 22 -17 22 -75 l0 -65 -207 -3 -208 -2 0 65
c0 60 2 66 25 77 l25 11 0 468 c0 398 -2 470 -15 481 -8 7 -22 19 -31 27 -13
11 -15 25 -11 63 4 27 9 53 12 58 4 7 73 9 183 8 l177 -3 3 -550z m-24106
-2244 c166 -63 245 -198 255 -436 16 -375 -168 -583 -497 -562 -279 18 -417
210 -397 552 15 251 121 404 316 457 89 24 243 19 323 -11z m2958 4 c80 -28
90 -39 90 -95 0 -27 -4 -51 -9 -54 -5 -3 -39 8 -75 25 -168 79 -316 32 -316
-101 0 -81 34 -114 201 -194 63 -30 133 -69 157 -87 121 -89 137 -273 32 -392
-98 -110 -309 -139 -483 -65 -55 24 -67 41 -67 98 0 52 17 59 72 27 141 -82
321 -72 386 23 16 24 22 48 22 85 0 85 -22 108 -194 197 -214 110 -260 162
-260 293 -1 124 59 206 179 245 71 24 193 22 265 -5z m-4701 -12 c22 -21 63
-113 169 -378 77 -192 146 -363 152 -380 9 -25 13 -27 20 -14 5 9 79 182 164
385 109 258 163 376 181 392 22 18 38 22 94 22 111 0 102 48 99 -515 l-3 -490
-34 -3 c-19 -2 -44 -1 -57 2 l-24 6 -2 448 -3 447 -184 -447 c-101 -246 -190
-449 -198 -452 -27 -11 -90 -6 -101 7 -5 6 -85 203 -177 437 -91 234 -171 429
-176 435 -5 5 -9 -158 -9 -432 0 -484 4 -453 -60 -453 -64 0 -60 -35 -60 495
0 426 2 485 16 499 11 12 36 16 90 16 67 0 76 -3 103 -27z m2237 19 c6 -4 75
-194 154 -422 78 -228 146 -419 150 -423 4 -5 72 184 151 420 l144 428 58 3
c44 2 59 -1 63 -12 7 -18 -332 -977 -349 -988 -7 -4 -40 -8 -74 -8 -54 0 -65
3 -77 23 -24 37 -347 959 -342 973 6 15 102 20 122 6z m1012 -4 c9 -9 12 -132
12 -494 0 -404 -2 -483 -14 -493 -8 -7 -36 -11 -63 -9 l-48 3 -3 494 c-2 389
0 496 10 503 20 12 93 9 106 -4z m826 -4 c8 -20 8 -58 0 -78 -5 -14 -33 -16
-210 -16 l-204 0 0 -160 0 -160 178 -2 177 -3 0 -50 0 -50 -177 -3 -178 -2 0
-180 0 -180 207 -2 208 -3 9 -27 c7 -18 6 -35 -2 -53 l-12 -25 -258 0 c-187 0
-261 3 -270 12 -17 17 -17 969 0 986 9 9 82 12 269 12 225 0 258 -2 263 -16z
m8641 -1509 c0 -20 -8 -20 -5354 -23 -3307 -1 -5359 2 -5364 7 -5 5 -7 17 -4
25 6 15 506 16 5364 14 5350 -3 5358 -3 5358 -23z m-7847 -447 c9 -9 12 -73
12 -226 l0 -213 43 34 c74 61 104 72 192 72 123 0 187 -43 242 -160 27 -57 28
-67 28 -205 0 -130 -3 -151 -24 -204 -34 -84 -101 -150 -176 -172 -105 -30
-192 -9 -279 67 l-45 40 -3 -53 c-3 -50 -5 -53 -32 -56 -15 -2 -39 -1 -52 2
l-24 6 0 534 c0 418 3 535 13 539 24 10 93 7 105 -5z m-364 -64 c10 -9 16 -33
16 -59 0 -55 -19 -75 -72 -75 -56 0 -78 22 -78 76 0 33 5 46 22 58 29 21 92
20 112 0z m-656 -16 c9 -9 12 -122 12 -445 l0 -433 187 -2 188 -3 9 -27 c6
-18 6 -38 0 -55 l-9 -28 -239 -3 c-168 -2 -243 1 -252 9 -20 16 -21 985 -1
992 24 10 93 7 105 -5z m2137 -268 c12 -10 15 -27 13 -64 -3 -56 3 -54 -88
-41 -55 8 -96 -16 -152 -90 l-38 -50 0 -236 c0 -261 3 -249 -65 -249 -69 0
-65 -25 -65 370 0 395 -4 370 64 370 44 0 56 -16 56 -72 l0 -47 48 51 c26 28
61 57 77 65 36 16 127 12 150 -7z m581 -12 c35 -18 57 -38 79 -73 l30 -48 0
-296 0 -296 -38 -3 c-48 -4 -67 11 -67 55 l0 35 -31 -27 c-77 -64 -175 -88
-266 -66 -110 27 -163 93 -163 202 0 152 122 228 364 229 l89 0 -6 67 c-8 76
-26 109 -78 136 -54 29 -156 19 -248 -23 -81 -38 -94 -34 -89 26 2 31 9 42 38
58 102 60 291 72 386 24z m749 12 c12 -10 15 -27 13 -64 -3 -56 3 -54 -88 -41
-55 8 -96 -16 -152 -90 l-38 -50 0 -236 c0 -261 3 -249 -65 -249 -69 0 -65
-25 -65 370 0 395 -4 370 64 370 44 0 56 -16 56 -72 l0 -47 48 51 c26 28 61
57 77 65 36 16 127 12 150 -7z m-2821 4 c14 -5 16 -47 16 -364 0 -397 5 -370
-69 -370 -20 0 -42 5 -49 12 -17 17 -17 699 0 716 13 13 75 16 102 6z m3029
-21 c8 -16 56 -146 107 -290 51 -145 96 -263 100 -263 3 0 48 123 99 273 52
149 98 280 103 290 11 21 99 24 116 4 8 -9 -36 -142 -167 -501 -97 -268 -184
-492 -192 -497 -24 -15 -109 -11 -115 6 -4 8 16 70 43 138 43 106 48 126 37
142 -25 39 -266 696 -260 710 4 11 21 15 60 15 51 0 57 -2 69 -27z"/>
<path d="M16626 9373 c-3 -15 -17 -113 -31 -218 -14 -104 -28 -202 -31 -217
l-6 -28 76 0 c53 0 76 4 76 12 0 39 -63 464 -70 471 -4 5 -11 -4 -14 -20z"/>
<path d="M24819 9523 c-19 -22 -26 -806 -8 -840 15 -28 40 -29 62 -5 15 17 17
61 17 434 0 370 -2 417 -16 422 -26 10 -41 7 -55 -11z"/>
<path d="M19868 9568 c-17 -30 -24 -880 -9 -922 14 -34 38 -43 59 -22 15 15
17 60 17 475 0 373 -3 461 -14 474 -19 23 -38 21 -53 -5z"/>
<path d="M23110 9571 c-6 -11 -10 -87 -10 -175 l0 -156 35 0 35 0 0 156 c0
155 -7 194 -35 194 -8 0 -19 -9 -25 -19z"/>
<path d="M23960 9571 c-6 -11 -10 -87 -10 -175 l0 -156 35 0 35 0 0 156 c0
155 -7 194 -35 194 -8 0 -19 -9 -25 -19z"/>
<path d="M28740 9571 c-6 -11 -10 -87 -10 -175 l0 -156 35 0 35 0 0 156 c0
155 -7 194 -35 194 -8 0 -19 -9 -25 -19z"/>
<path d="M30260 9571 c-6 -11 -10 -87 -10 -175 l0 -156 35 0 35 0 0 156 c0
155 -7 194 -35 194 -8 0 -19 -9 -25 -19z"/>
<path d="M1802 6831 c-131 -45 -202 -179 -202 -381 0 -147 34 -261 96 -324 52
-53 108 -71 214 -71 87 0 100 3 149 30 105 58 150 153 158 333 9 181 -23 290
-106 365 -72 65 -202 85 -309 48z"/>
<path d="M5375 4527 c-16 -8 -54 -35 -82 -61 l-53 -48 0 -148 0 -147 50 -47
c78 -73 142 -92 213 -62 83 34 122 133 115 286 -6 112 -30 176 -80 212 -38 27
-120 34 -163 15z"/>
<path d="M6686 4222 c-64 -22 -91 -58 -90 -119 1 -36 7 -51 32 -75 59 -60 166
-46 255 32 36 32 37 33 37 106 l0 74 -92 0 c-61 -1 -110 -7 -142 -18z"/>
<path d="M35720 5620 l0 -5620 40 0 40 0 0 5620 0 5620 -40 0 -40 0 0 -5620z"/>
</g>
</svg>
