<?xml version="1.0" standalone="no"?>
<!DOCTYPE svg PUBLIC "-//W3C//DTD SVG 20010904//EN"
 "http://www.w3.org/TR/2001/REC-SVG-20010904/DTD/svg10.dtd">
<svg version="1.0" xmlns="http://www.w3.org/2000/svg"
 width="3580.000000pt" height="1124.000000pt" viewBox="0 0 3580.000000 1124.000000"
 preserveAspectRatio="xMidYMid meet">

<g transform="translate(0.000000,1124.000000) scale(0.100000,-0.100000)"
fill="#000000" stroke="none">
<path d="M0 5620 l0 -5620 17900 0 17900 0 0 5620 0 5620 -40 0 -40 0 0 -2405
0 -2405 -45 0 -45 0 0 2405 0 2405 -17815 0 -17815 0 0 -5620z m26173 4349
c31 -17 37 -28 37 -77 0 -36 -6 -50 -33 -77 -41 -41 -117 -65 -204 -65 -105 0
-141 32 -127 112 11 57 54 88 159 111 42 10 147 7 168 -4z m-9274 -33 c11 -13
27 -116 130 -836 57 -398 63 -425 97 -460 28 -30 41 -102 25 -142 l-11 -28
-224 0 c-255 0 -242 -5 -230 87 5 40 12 56 30 68 25 16 30 45 18 118 l-7 37
-91 0 -92 0 -10 -61 -10 -61 32 -25 c25 -19 35 -35 40 -69 3 -24 3 -55 0 -69
l-7 -26 -147 3 -147 3 1 60 c1 50 6 68 31 105 30 44 33 61 113 584 l82 538
-26 27 c-22 23 -26 36 -26 87 0 34 3 64 7 67 3 4 97 7 208 7 161 0 205 -3 214
-14z m708 -646 c3 -648 3 -655 23 -672 18 -14 21 -26 18 -80 l-3 -63 -210 0
-210 0 -3 62 c-2 50 1 66 16 81 29 29 31 77 34 644 l2 517 -27 25 c-23 21 -27
33 -27 79 0 29 3 57 7 61 4 3 90 5 192 4 l186 -3 2 -655z m500 0 c3 -648 3
-655 23 -672 18 -14 21 -26 18 -80 l-3 -63 -210 0 -210 0 -3 62 c-2 50 1 66
16 81 29 29 31 77 34 644 l2 517 -27 25 c-23 21 -27 33 -27 79 0 29 3 57 7 61
4 3 90 5 192 4 l186 -3 2 -655z m7111 -2 l2 -658 31 -15 c29 -16 30 -18 27
-78 l-3 -62 -191 -3 c-182 -2 -192 -2 -197 17 -5 19 -6 19 -53 -5 -35 -18 -63
-24 -108 -24 -148 1 -231 96 -274 315 -11 58 -15 141 -15 300 1 405 50 583
178 645 60 29 159 26 223 -8 49 -25 55 -20 50 44 -2 31 -9 42 -30 52 -26 12
-28 17 -28 78 l0 64 193 -2 192 -3 3 -657z m2590 522 c1 -74 4 -141 7 -149 4
-10 14 -7 40 13 120 92 276 86 340 -13 40 -61 45 -128 45 -596 0 -432 0 -441
20 -458 18 -15 20 -27 18 -75 l-3 -57 -156 -3 c-232 -4 -218 -39 -219 559 0
396 -2 448 -16 460 -13 11 -20 11 -42 -2 l-27 -15 -3 -413 -2 -414 25 -33 c20
-26 25 -44 25 -89 l0 -55 -212 2 -213 3 -3 55 c-3 49 0 59 23 80 l25 23 0 568
c0 312 -3 575 -6 584 -4 9 -17 21 -30 26 -21 8 -24 15 -24 67 0 32 3 62 7 66
4 3 90 5 192 4 l186 -3 3 -135z m-7755 -103 c63 -32 144 -113 176 -180 11 -23
31 -79 43 -122 19 -71 22 -104 22 -295 0 -189 -3 -224 -22 -292 -43 -156 -119
-265 -224 -323 -49 -28 -61 -30 -153 -30 -89 0 -106 3 -157 28 -71 35 -130
100 -174 192 -82 170 -95 473 -32 729 38 155 126 267 240 308 80 28 206 21
281 -15z m2444 14 c26 -12 52 -35 70 -62 l28 -43 3 -485 c3 -454 4 -487 21
-506 22 -24 35 -86 26 -126 l-7 -29 -160 2 -161 3 -21 28 c-21 28 -21 38 -24
500 -2 414 -4 473 -19 489 -14 16 -18 16 -44 2 l-29 -15 0 -420 0 -421 25 -20
c21 -16 25 -28 25 -72 0 -28 -5 -57 -12 -64 -9 -9 -70 -12 -214 -12 -226 0
-214 -4 -214 76 0 35 5 49 25 66 l25 22 0 466 c0 457 0 467 -20 485 -17 16
-20 29 -18 79 l3 61 185 0 185 0 3 -37 3 -38 37 30 c75 60 197 78 279 41z
m734 9 c20 -6 55 -23 77 -38 111 -74 165 -217 179 -469 l6 -123 -196 0 -197 0
0 -207 c0 -222 4 -240 51 -276 24 -17 30 -18 55 -6 15 8 41 33 57 56 25 34 31
56 37 127 5 47 11 90 15 96 8 13 135 13 155 0 11 -7 15 -28 14 -88 -1 -132
-68 -248 -176 -308 -49 -27 -60 -29 -158 -29 -89 0 -112 3 -151 23 -147 72
-233 222 -260 452 -19 170 2 391 51 534 40 119 135 221 233 252 51 15 159 18
208 4z m850 0 c20 -6 55 -23 77 -38 111 -74 165 -217 179 -469 l6 -123 -196 0
-197 0 0 -207 c0 -222 4 -240 51 -276 24 -17 30 -18 55 -6 15 8 41 33 57 56
25 34 31 56 37 127 5 47 11 90 15 96 8 13 135 13 155 0 11 -7 15 -28 14 -88
-1 -132 -68 -248 -176 -308 -49 -27 -60 -29 -158 -29 -89 0 -112 3 -151 23
-147 72 -233 222 -260 452 -19 170 2 391 51 534 40 119 135 221 233 252 51 15
159 18 208 4z m2555 -6 c42 -14 47 -14 58 1 9 12 25 15 66 13 l53 -3 24 -125
c13 -69 25 -147 26 -175 l2 -50 -44 -3 c-73 -5 -86 2 -126 75 -43 79 -82 133
-96 133 -37 0 -14 -54 127 -307 41 -72 80 -146 86 -165 6 -18 15 -38 19 -44
17 -22 50 -171 55 -254 11 -149 -24 -263 -99 -323 -51 -42 -132 -49 -202 -18
-38 17 -50 19 -57 9 -4 -7 -8 -16 -8 -20 0 -10 -101 -10 -117 0 -11 7 -63 276
-63 326 0 29 16 36 80 36 52 0 83 -20 96 -64 15 -47 74 -126 94 -126 45 0 22
72 -88 270 -167 300 -197 387 -189 550 3 58 10 122 16 142 34 112 159 165 287
122z m2225 6 c20 -6 55 -23 77 -38 111 -74 165 -217 179 -469 l6 -123 -196 0
-197 0 0 -207 c0 -222 4 -240 51 -276 24 -17 30 -18 55 -6 15 8 41 33 57 56
25 34 31 56 37 127 5 47 11 90 15 96 8 13 135 13 155 0 11 -7 15 -28 14 -88
-1 -132 -68 -248 -176 -308 -49 -27 -60 -29 -158 -29 -89 0 -112 3 -151 23
-147 72 -233 222 -260 452 -19 170 2 391 51 534 40 119 135 221 233 252 51 15
159 18 208 4z m908 -17 c49 -49 63 -229 25 -305 -18 -35 -43 -48 -93 -48 -35
0 -44 5 -72 40 -23 29 -35 37 -41 28 -4 -7 -8 -189 -8 -403 l0 -391 30 -17
c28 -17 30 -22 30 -83 l0 -64 -200 0 c-193 0 -200 1 -211 21 -16 30 -2 110 22
127 18 13 19 32 19 482 l0 469 -26 24 c-22 21 -25 30 -22 78 l3 54 158 3 157
3 0 -45 c0 -57 15 -67 33 -23 22 52 61 77 119 77 41 0 54 -5 77 -27z m612 17
c20 -6 55 -23 77 -38 111 -74 165 -217 179 -469 l6 -123 -196 0 -197 0 0 -207
c0 -222 4 -240 51 -276 24 -17 30 -18 55 -6 15 8 41 33 57 56 25 34 31 56 37
127 5 47 11 90 15 96 8 13 135 13 155 0 11 -7 15 -28 14 -88 -1 -132 -68 -248
-176 -308 -49 -27 -60 -29 -158 -29 -89 0 -112 3 -151 23 -147 72 -233 222
-260 452 -19 170 2 391 51 534 40 119 135 221 233 252 51 15 159 18 208 4z
m-11283 -54 c3 -42 0 -53 -22 -73 -14 -13 -26 -33 -26 -45 0 -34 72 -382 81
-392 12 -13 15 -1 52 206 l34 187 -29 32 c-25 27 -29 38 -26 83 l3 51 114 3
c63 1 118 -1 123 -6 5 -5 11 -31 15 -59 5 -44 3 -52 -14 -62 -11 -5 -25 -23
-31 -38 -7 -15 -52 -251 -102 -523 -49 -272 -97 -522 -105 -555 -42 -158 -140
-235 -302 -235 -120 0 -173 43 -173 141 0 31 3 65 6 74 15 38 118 60 165 35
10 -6 28 -29 39 -50 20 -40 33 -49 45 -30 7 12 -200 1070 -221 1127 -8 23 -22
44 -29 47 -11 4 -15 22 -15 64 0 32 3 62 7 66 4 3 97 5 207 4 l201 -3 3 -49z
m1674 -446 l3 -499 22 -23 c22 -21 23 -21 43 -3 19 18 20 28 20 436 l0 418
-26 24 c-22 21 -25 30 -22 83 l3 59 190 0 190 0 3 -551 2 -552 25 -16 c22 -15
25 -24 25 -76 l0 -60 -187 2 -188 3 -3 25 c-6 50 -10 53 -45 26 -85 -65 -192
-84 -272 -47 -48 22 -68 43 -92 96 -16 36 -18 84 -21 515 l-3 476 -22 9 c-18
8 -22 19 -25 69 -2 32 -1 65 2 72 4 11 43 14 190 14 l185 0 3 -500z m5436 -55
l2 -550 23 -10 c19 -9 22 -17 22 -75 l0 -65 -207 -3 -208 -2 0 65 c0 60 2 66
25 77 l25 11 0 468 c0 398 -2 470 -15 481 -8 7 -22 19 -31 27 -13 11 -15 25
-11 63 4 27 9 53 12 58 4 7 73 9 183 8 l177 -3 3 -550z m-24106 -2244 c166
-63 245 -198 255 -436 16 -375 -168 -583 -497 -562 -279 18 -417 210 -397 552
15 251 121 404 316 457 89 24 243 19 323 -11z m2958 4 c80 -28 90 -39 90 -95
0 -27 -4 -51 -9 -54 -5 -3 -39 8 -75 25 -168 79 -316 32 -316 -101 0 -81 34
-114 201 -194 63 -30 133 -69 157 -87 121 -89 137 -273 32 -392 -98 -110 -309
-139 -483 -65 -55 24 -67 41 -67 98 0 52 17 59 72 27 141 -82 321 -72 386 23
16 24 22 48 22 85 0 85 -22 108 -194 197 -214 110 -260 162 -260 293 -1 124
59 206 179 245 71 24 193 22 265 -5z m-4701 -12 c22 -21 63 -113 169 -378 77
-192 146 -363 152 -380 9 -25 13 -27 20 -14 5 9 79 182 164 385 109 258 163
376 181 392 22 18 38 22 94 22 111 0 102 48 99 -515 l-3 -490 -34 -3 c-19 -2
-44 -1 -57 2 l-24 6 -2 448 -3 447 -184 -447 c-101 -246 -190 -449 -198 -452
-27 -11 -90 -6 -101 7 -5 6 -85 203 -177 437 -91 234 -171 429 -176 435 -5 5
-9 -158 -9 -432 0 -484 4 -453 -60 -453 -64 0 -60 -35 -60 495 0 426 2 485 16
499 11 12 36 16 90 16 67 0 76 -3 103 -27z m2237 19 c6 -4 75 -194 154 -422
78 -228 146 -419 150 -423 4 -5 72 184 151 420 l144 428 58 3 c44 2 59 -1 63
-12 7 -18 -332 -977 -349 -988 -7 -4 -40 -8 -74 -8 -54 0 -65 3 -77 23 -24 37
-347 959 -342 973 6 15 102 20 122 6z m1012 -4 c9 -9 12 -132 12 -494 0 -404
-2 -483 -14 -493 -8 -7 -36 -11 -63 -9 l-48 3 -3 494 c-2 389 0 496 10 503 20
12 93 9 106 -4z m826 -4 c8 -20 8 -58 0 -78 -5 -14 -33 -16 -210 -16 l-204 0
0 -160 0 -160 178 -2 177 -3 0 -50 0 -50 -177 -3 -178 -2 0 -180 0 -180 207
-2 208 -3 9 -27 c7 -18 6 -35 -2 -53 l-12 -25 -258 0 c-187 0 -261 3 -270 12
-17 17 -17 969 0 986 9 9 82 12 269 12 225 0 258 -2 263 -16z m20836 -1139 c0
-233 2 -275 14 -275 8 0 17 4 20 9 3 5 27 19 53 31 103 48 280 35 354 -27 59
-50 63 -71 67 -358 5 -297 6 -303 77 -330 36 -14 45 -23 45 -41 l0 -24 -205 0
-205 0 0 23 c0 18 9 26 43 37 72 26 77 45 77 324 0 222 -2 243 -21 282 -22 46
-82 84 -130 84 -44 -1 -107 -37 -133 -77 -44 -67 -56 -138 -56 -346 0 -220 5
-236 75 -262 36 -14 45 -23 45 -41 l0 -24 -205 0 -205 0 0 23 c0 18 9 26 42
37 29 11 48 26 63 50 19 34 20 53 23 457 5 563 -3 619 -89 638 -22 5 -29 12
-29 30 0 20 6 25 43 30 85 12 173 22 205 24 l32 1 0 -275z m1460 5 c0 -148 4
-270 9 -270 5 0 30 12 57 28 45 25 58 27 154 27 126 0 171 -17 254 -95 65 -61
92 -120 108 -231 29 -206 -52 -383 -210 -457 -51 -24 -68 -27 -172 -27 -98 0
-123 3 -172 24 -54 22 -60 22 -82 7 -14 -8 -27 -25 -31 -36 -5 -15 -15 -20
-41 -20 l-34 0 0 553 c0 329 -4 566 -10 586 -13 46 -46 79 -87 87 -26 5 -33
11 -33 30 0 18 7 24 33 29 107 18 206 33 230 34 l27 1 0 -270z m3180 188 c0
-29 3 -110 7 -180 l6 -128 -26 0 c-22 0 -26 6 -32 39 -10 60 -59 154 -96 186
-19 15 -52 36 -74 46 -43 19 -168 39 -241 39 l-44 0 0 -502 c0 -309 4 -517 10
-540 15 -52 77 -105 134 -113 40 -6 46 -10 46 -31 l0 -24 -300 0 -300 0 0 24
c0 20 6 25 38 31 60 10 101 40 125 93 22 46 22 57 25 556 l3 509 -98 -7 c-230
-16 -311 -74 -358 -256 -9 -38 -16 -46 -38 -48 -24 -3 -26 -1 -22 30 3 18 7
99 11 181 l6 147 609 0 609 0 0 -52z m680 28 c0 -20 -6 -25 -40 -31 -54 -9
-99 -42 -124 -90 -20 -39 -21 -53 -21 -485 0 -425 1 -447 20 -485 24 -47 70
-81 125 -90 34 -6 40 -11 40 -31 l0 -24 -300 0 -300 0 0 24 c0 21 6 25 45 31
57 8 108 51 130 108 14 37 16 97 13 482 -3 393 -5 443 -20 471 -26 48 -73 82
-123 90 -39 5 -45 10 -45 30 l0 24 300 0 300 0 0 -24z m1290 -28 c0 -29 3
-110 7 -180 l6 -128 -26 0 c-22 0 -26 6 -32 39 -10 60 -59 154 -96 186 -19 15
-52 36 -74 46 -43 19 -168 39 -241 39 l-44 0 0 -502 c0 -309 4 -517 10 -540
15 -52 77 -105 134 -113 40 -6 46 -10 46 -31 l0 -24 -300 0 -300 0 0 24 c0 20
6 25 38 31 60 10 101 40 125 93 22 46 22 57 25 556 l3 509 -98 -7 c-230 -16
-311 -74 -358 -256 -9 -38 -16 -46 -38 -48 -24 -3 -26 -1 -22 30 3 18 7 99 11
181 l6 147 609 0 609 0 0 -52z m680 28 c0 -20 -6 -25 -38 -31 -56 -9 -96 -37
-118 -81 -18 -36 -19 -68 -22 -438 -3 -434 1 -479 48 -544 54 -75 174 -108
302 -82 81 15 126 39 171 89 51 56 66 90 97 209 9 36 15 43 33 40 25 -3 23 17
19 -253 l-2 -145 -540 0 -540 0 0 24 c0 19 6 25 38 30 56 9 101 41 122 89 18
39 20 70 20 487 0 417 -2 448 -20 487 -21 48 -64 79 -122 88 -32 6 -38 11 -38
31 l0 24 295 0 295 0 0 -24z m1540 -29 c0 -30 3 -102 7 -160 l6 -107 -24 0
c-21 0 -26 8 -41 59 -24 81 -71 139 -142 176 -56 28 -64 29 -217 33 l-159 4 0
-261 0 -261 53 0 c28 0 69 5 89 10 64 18 118 101 118 183 0 22 4 27 25 27 l25
0 0 -255 0 -255 -24 0 c-20 0 -25 7 -35 57 -24 120 -77 170 -194 181 l-60 5 6
-199 c4 -109 12 -217 18 -239 7 -24 29 -58 58 -86 38 -39 56 -49 106 -59 138
-29 291 17 360 107 36 47 68 123 80 186 6 30 12 37 31 37 24 0 24 -1 24 -97 0
-54 -3 -142 -7 -195 l-6 -98 -539 0 -538 0 0 23 c0 19 8 24 53 35 63 14 110
60 127 122 8 28 10 177 8 473 -3 385 -5 435 -20 463 -26 48 -73 82 -123 90
-39 5 -45 10 -45 30 l0 24 490 0 490 0 0 -53z m-12415 -410 c1 -1 5 -53 8
-114 l7 -113 -24 0 c-18 0 -26 7 -31 28 -21 87 -113 171 -174 157 -33 -7 -65
-38 -80 -78 -9 -23 -8 -36 5 -63 20 -42 42 -58 162 -118 167 -84 207 -141 201
-284 -4 -70 -8 -86 -34 -124 -20 -28 -49 -52 -84 -70 -60 -31 -100 -34 -283
-21 l-98 6 0 129 0 128 24 0 c19 0 26 -7 31 -30 10 -44 71 -132 112 -160 122
-84 255 59 166 178 -10 14 -64 52 -121 86 -169 102 -202 144 -202 260 0 76 11
110 48 150 54 58 92 68 236 61 71 -3 130 -6 131 -8z m712 -2 c114 -34 182
-118 191 -236 l5 -69 -258 0 -258 0 6 -72 c6 -94 30 -164 76 -223 110 -145
316 -148 383 -5 18 38 28 49 47 50 22 0 23 -3 18 -41 -3 -23 -18 -62 -34 -87
-56 -91 -149 -128 -302 -119 -125 6 -194 32 -262 98 -79 76 -102 138 -107 284
-4 136 10 196 67 278 86 126 273 188 428 142z m815 -14 c47 -18 82 -46 120
-94 1 -1 4 -132 7 -290 6 -288 6 -289 30 -308 31 -25 44 -24 79 6 40 34 62 33
62 -4 0 -32 -36 -76 -75 -91 -38 -14 -130 -12 -169 4 -18 7 -43 26 -55 42 -19
24 -25 26 -39 16 -87 -63 -130 -76 -228 -70 -78 5 -135 31 -169 76 -30 40 -29
188 1 229 40 54 73 70 251 122 50 15 83 32 108 56 l37 34 -3 80 c-5 90 -21
123 -82 156 -34 19 -37 19 -72 2 -29 -14 -42 -30 -64 -81 -30 -66 -42 -76 -95
-76 -43 0 -72 23 -80 64 -13 68 27 113 125 141 78 22 236 14 311 -14z m578 15
c0 -8 4 -26 10 -40 l9 -26 48 30 c58 37 102 50 169 50 62 0 111 -16 124 -40 6
-10 10 -39 10 -64 0 -52 -16 -66 -75 -66 -28 0 -44 8 -74 39 -47 48 -74 58
-106 37 -67 -44 -85 -124 -85 -382 l0 -202 26 -31 c14 -17 43 -36 65 -42 31
-10 39 -17 39 -36 l0 -23 -215 0 -215 0 0 23 c0 19 9 26 47 38 79 24 83 40 83
327 0 269 -5 299 -59 326 -16 9 -37 16 -46 16 -9 0 -15 9 -15 24 0 21 6 26 43
31 23 3 67 9 97 14 88 14 120 13 120 -3z m1021 -15 c61 -29 85 -57 93 -106 10
-57 -20 -95 -73 -95 -51 0 -86 29 -106 89 -18 54 -37 76 -77 86 -94 24 -207
-104 -237 -270 -16 -83 -14 -124 9 -196 53 -172 193 -271 315 -224 47 18 92
62 107 107 7 20 17 28 34 28 64 0 -5 -135 -92 -180 -44 -23 -59 -25 -169 -25
-100 1 -129 5 -176 23 -80 32 -142 90 -181 169 -29 58 -33 78 -36 166 -8 194
64 338 205 411 101 51 294 60 384 17z m2959 -5 c0 -18 -7 -26 -27 -31 -39 -9
-63 -34 -63 -64 1 -34 152 -426 165 -426 11 0 139 309 155 378 10 41 10 51 -5
73 -9 15 -30 31 -46 37 -20 8 -29 18 -29 34 0 23 1 23 145 23 145 0 145 0 145
-23 0 -17 -10 -28 -39 -40 -53 -24 -77 -72 -261 -532 -165 -413 -186 -459
-222 -492 -47 -44 -141 -57 -197 -28 -31 16 -41 33 -41 73 0 58 68 80 146 47
59 -24 83 -1 128 124 32 90 42 55 -130 474 -122 298 -148 347 -190 347 -8 0
-14 10 -14 25 l0 25 190 0 190 0 0 -24z m-14695 -131 c0 -20 -8 -20 -5354 -23
-3307 -1 -5359 2 -5364 7 -5 5 -7 17 -4 25 6 15 506 16 5364 14 5350 -3 5358
-3 5358 -23z m8065 -245 l0 -80 -210 0 -210 0 0 80 0 80 210 0 210 0 0 -80z
m-15912 -202 c9 -9 12 -73 12 -226 l0 -213 43 34 c74 61 104 72 192 72 123 0
187 -43 242 -160 27 -57 28 -67 28 -205 0 -130 -3 -151 -24 -204 -34 -84 -101
-150 -176 -172 -105 -30 -192 -9 -279 67 l-45 40 -3 -53 c-3 -50 -5 -53 -32
-56 -15 -2 -39 -1 -52 2 l-24 6 0 534 c0 418 3 535 13 539 24 10 93 7 105 -5z
m-364 -64 c10 -9 16 -33 16 -59 0 -55 -19 -75 -72 -75 -56 0 -78 22 -78 76 0
33 5 46 22 58 29 21 92 20 112 0z m-656 -16 c9 -9 12 -122 12 -445 l0 -433
187 -2 188 -3 9 -27 c6 -18 6 -38 0 -55 l-9 -28 -239 -3 c-168 -2 -243 1 -252
9 -20 16 -21 985 -1 992 24 10 93 7 105 -5z m2137 -268 c12 -10 15 -27 13 -64
-3 -56 3 -54 -88 -41 -55 8 -96 -16 -152 -90 l-38 -50 0 -236 c0 -261 3 -249
-65 -249 -69 0 -65 -25 -65 370 0 395 -4 370 64 370 44 0 56 -16 56 -72 l0
-47 48 51 c26 28 61 57 77 65 36 16 127 12 150 -7z m581 -12 c35 -18 57 -38
79 -73 l30 -48 0 -296 0 -296 -38 -3 c-48 -4 -67 11 -67 55 l0 35 -31 -27
c-77 -64 -175 -88 -266 -66 -110 27 -163 93 -163 202 0 152 122 228 364 229
l89 0 -6 67 c-8 76 -26 109 -78 136 -54 29 -156 19 -248 -23 -81 -38 -94 -34
-89 26 2 31 9 42 38 58 102 60 291 72 386 24z m749 12 c12 -10 15 -27 13 -64
-3 -56 3 -54 -88 -41 -55 8 -96 -16 -152 -90 l-38 -50 0 -236 c0 -261 3 -249
-65 -249 -69 0 -65 -25 -65 370 0 395 -4 370 64 370 44 0 56 -16 56 -72 l0
-47 48 51 c26 28 61 57 77 65 36 16 127 12 150 -7z m-2821 4 c14 -5 16 -47 16
-364 0 -397 5 -370 -69 -370 -20 0 -42 5 -49 12 -17 17 -17 699 0 716 13 13
75 16 102 6z m3029 -21 c8 -16 56 -146 107 -290 51 -145 96 -263 100 -263 3 0
48 123 99 273 52 149 98 280 103 290 11 21 99 24 116 4 8 -9 -36 -142 -167
-501 -97 -268 -184 -492 -192 -497 -24 -15 -109 -11 -115 6 -4 8 16 70 43 138
43 106 48 126 37 142 -25 39 -266 696 -260 710 4 11 21 15 60 15 51 0 57 -2
69 -27z"/>
<path d="M16626 9373 c-3 -15 -17 -113 -31 -218 -14 -104 -28 -202 -31 -217
l-6 -28 76 0 c53 0 76 4 76 12 0 39 -63 464 -70 471 -4 5 -11 -4 -14 -20z"/>
<path d="M24819 9523 c-19 -22 -26 -806 -8 -840 15 -28 40 -29 62 -5 15 17 17
61 17 434 0 370 -2 417 -16 422 -26 10 -41 7 -55 -11z"/>
<path d="M19868 9568 c-17 -30 -24 -880 -9 -922 14 -34 38 -43 59 -22 15 15
17 60 17 475 0 373 -3 461 -14 474 -19 23 -38 21 -53 -5z"/>
<path d="M23110 9571 c-6 -11 -10 -87 -10 -175 l0 -156 35 0 35 0 0 156 c0
155 -7 194 -35 194 -8 0 -19 -9 -25 -19z"/>
<path d="M23960 9571 c-6 -11 -10 -87 -10 -175 l0 -156 35 0 35 0 0 156 c0
155 -7 194 -35 194 -8 0 -19 -9 -25 -19z"/>
<path d="M28740 9571 c-6 -11 -10 -87 -10 -175 l0 -156 35 0 35 0 0 156 c0
155 -7 194 -35 194 -8 0 -19 -9 -25 -19z"/>
<path d="M30260 9571 c-6 -11 -10 -87 -10 -175 l0 -156 35 0 35 0 0 156 c0
155 -7 194 -35 194 -8 0 -19 -9 -25 -19z"/>
<path d="M1802 6831 c-131 -45 -202 -179 -202 -381 0 -147 34 -261 96 -324 52
-53 108 -71 214 -71 87 0 100 3 149 30 105 58 150 153 158 333 9 181 -23 290
-106 365 -72 65 -202 85 -309 48z"/>
<path d="M26847 5520 c-81 -44 -109 -128 -110 -330 -1 -177 14 -256 60 -309
69 -81 155 -78 235 7 116 124 132 372 34 532 -62 100 -146 139 -219 100z"/>
<path d="M22208 5517 c-53 -32 -96 -93 -112 -159 l-6 -28 171 0 171 0 -7 37
c-14 76 -61 141 -118 162 -41 16 -57 14 -99 -12z"/>
<path d="M23088 5147 c-88 -55 -124 -91 -144 -143 -23 -59 -13 -104 32 -143
39 -35 53 -37 93 -16 43 22 79 70 96 127 19 64 21 218 3 217 -7 0 -43 -19 -80
-42z"/>
<path d="M5375 4527 c-16 -8 -54 -35 -82 -61 l-53 -48 0 -148 0 -147 50 -47
c78 -73 142 -92 213 -62 83 34 122 133 115 286 -6 112 -30 176 -80 212 -38 27
-120 34 -163 15z"/>
<path d="M6686 4222 c-64 -22 -91 -58 -90 -119 1 -36 7 -51 32 -75 59 -60 166
-46 255 32 36 32 37 33 37 106 l0 74 -92 0 c-61 -1 -110 -7 -142 -18z"/>
</g>
</svg>
